<svg width="53" height="14" viewBox="0 0 53 14" fill="none" xmlns="http://www.w3.org/2000/svg">
<rect x="44.0615" y="4.06134" width="6.38452" height="6.38452" rx="0.638452" fill="black"/>
<rect x="47.8921" y="1.50751" width="1.2769" height="1.2769" rx="0.638452" transform="rotate(90 47.8921 1.50751)" fill="black"/>
<rect x="47.8921" y="11.7228" width="1.2769" height="1.2769" rx="0.638452" transform="rotate(90 47.8921 11.7228)" fill="black"/>
<rect x="52.9998" y="6.61514" width="1.2769" height="1.2769" rx="0.638452" transform="rotate(90 52.9998 6.61514)" fill="black"/>
<rect x="42.7844" y="6.61514" width="1.2769" height="1.2769" rx="0.638452" transform="rotate(90 42.7844 6.61514)" fill="black"/>
<rect x="48.5308" y="5.97665" width="2.55381" height="2.55381" rx="1.2769" transform="rotate(90 48.5308 5.97665)" fill="white"/>
<path d="M1.36341 14V1.4711H4.01235V11.816H9.38362V14H1.36341ZM11.0889 14V4.60332H13.695V14H11.0889ZM12.3981 3.39203C12.0106 3.39203 11.6782 3.26356 11.4009 3.00662C11.1277 2.7456 10.991 2.43361 10.991 2.07063C10.991 1.71173 11.1277 1.40381 11.4009 1.14687C11.6782 0.885846 12.0106 0.755337 12.3981 0.755337C12.7855 0.755337 13.1159 0.885846 13.3891 1.14687C13.6665 1.40381 13.8051 1.71173 13.8051 2.07063C13.8051 2.43361 13.6665 2.7456 13.3891 3.00662C13.1159 3.26356 12.7855 3.39203 12.3981 3.39203ZM26.3111 1.4711V14H24.0231L18.5723 6.11438H18.4805V14H15.8316V1.4711H18.1563L23.5643 9.3506H23.6744V1.4711H26.3111ZM30.9834 1.4711L33.51 5.7412H33.6079L36.1467 1.4711H39.1382L35.3147 7.73555L39.2239 14H36.1773L33.6079 9.72378H33.51L30.9406 14H27.9063L31.8277 7.73555L27.9797 1.4711H30.9834Z" fill="black"/>
</svg>
